<?xml version="1.0" encoding="utf-8"?>
<!-- Generator: Adobe Illustrator 17.1.0, SVG Export Plug-In . SVG Version: 6.00 Build 0)  -->
<!DOCTYPE svg PUBLIC "-//W3C//DTD SVG 1.1//EN" "http://www.w3.org/Graphics/SVG/1.1/DTD/svg11.dtd">
<svg version="1.1" id="Layer_1" xmlns="http://www.w3.org/2000/svg" xmlns:xlink="http://www.w3.org/1999/xlink" x="0px" y="0px"
	 viewBox="0 0 96 96" enable-background="new 0 0 96 96" xml:space="preserve">
<path id="view_2_" d="M48,29.7C30.1,29.7,16,48,16,48s14.1,18.3,32,18.3C61.7,66.3,80,48,80,48S61.7,29.7,48,29.7z M48,59.4
	c-6.3,0-11.4-5.1-11.4-11.4S41.7,36.6,48,36.6S59.4,41.7,59.4,48S54.3,59.4,48,59.4z M48,41.8c-3.4,0-6.2,2.8-6.2,6.2
	s2.8,6.2,6.2,6.2s6.2-2.8,6.2-6.2S51.4,41.8,48,41.8z"/>
</svg>
